<svg id="SvgjsSvg1011" xmlns="http://www.w3.org/2000/svg" version="1.1" xmlns:xlink="http://www.w3.org/1999/xlink" xmlns:svgjs="http://svgjs.com/svgjs" width="18" height="9" viewBox="0 0 18 9"><title>стрелка влево</title><desc>Created with Avocode.</desc><defs id="SvgjsDefs1012"></defs><path id="SvgjsPath1013" d="M131.726 2073.84C131.626 2073.78 131.508 2073.75 131.384 2073.75L118.68499999999999 2073.89L121.75299999999999 2071.68C122.06199999999998 2071.45 122.13499999999999 2071.02 121.91699999999999 2070.72C121.85899999999998 2070.6299999999997 121.78499999999998 2070.5699999999997 121.70299999999999 2070.52C121.478 2070.39 121.18799999999999 2070.4 120.96099999999998 2070.56L116.14799999999998 2074.0299999999997C116.13299999999998 2074.04 116.12399999999998 2074.06 116.10999999999999 2074.0699999999997C116.07999999999998 2074.0899999999997 116.05399999999999 2074.12 116.02899999999998 2074.1499999999996C116.01599999999998 2074.16 115.99899999999998 2074.1699999999996 115.98699999999998 2074.1899999999996C115.98299999999998 2074.2 115.98199999999999 2074.2 115.97699999999998 2074.2099999999996C115.96299999999998 2074.2299999999996 115.95299999999997 2074.2599999999998 115.94099999999997 2074.2799999999997C115.92399999999998 2074.31 115.91199999999998 2074.35 115.89999999999998 2074.3799999999997C115.89099999999998 2074.41 115.87899999999998 2074.43 115.87399999999998 2074.4599999999996C115.86899999999999 2074.49 115.87099999999998 2074.5099999999998 115.86799999999998 2074.5399999999995C115.86799999999998 2074.5599999999995 115.85799999999998 2074.5699999999997 115.85799999999998 2074.5899999999997C115.85799999999998 2074.6099999999997 115.86799999999998 2074.6299999999997 115.86899999999997 2074.6499999999996C115.87099999999997 2074.6699999999996 115.86899999999997 2074.7 115.87399999999997 2074.72C115.87899999999996 2074.75 115.89099999999996 2074.77 115.89999999999996 2074.7999999999997C115.91099999999996 2074.8399999999997 115.92399999999996 2074.87 115.94099999999996 2074.8999999999996C115.95199999999996 2074.93 115.96099999999996 2074.95 115.97499999999997 2074.97C115.97999999999996 2074.98 115.97999999999996 2074.99 115.98499999999997 2074.99C115.99599999999997 2075.0099999999998 116.01299999999998 2075.02 116.02399999999997 2075.0299999999997C116.04999999999997 2075.06 116.07699999999997 2075.0899999999997 116.10699999999997 2075.1099999999997C116.12099999999997 2075.12 116.12799999999997 2075.14 116.14399999999998 2075.1499999999996L120.92399999999998 2078.5699999999997C121.23299999999998 2078.7999999999997 121.65899999999998 2078.72 121.87999999999998 2078.41C122.10199999999998 2078.1 122.03299999999999 2077.67 121.72599999999998 2077.45L118.67999999999998 2075.27L131.37699999999998 2075.13C131.75599999999997 2075.12 132.064 2074.81 132.06599999999997 2074.4300000000003C132.06699999999998 2074.1800000000003 131.92999999999998 2073.9600000000005 131.72599999999997 2073.84Z " fill="#333333" fill-opacity="1" transform="matrix(1,0,0,1,-115,-2070)"></path></svg>