<?xml version="1.0" encoding="UTF-8" standalone="no"?>
<svg
   xmlns:dc="http://purl.org/dc/elements/1.1/"
   xmlns:cc="http://creativecommons.org/ns#"
   xmlns:rdf="http://www.w3.org/1999/02/22-rdf-syntax-ns#"
   xmlns:svg="http://www.w3.org/2000/svg"
   xmlns="http://www.w3.org/2000/svg"
   xmlns:sodipodi="http://sodipodi.sourceforge.net/DTD/sodipodi-0.dtd"
   xmlns:inkscape="http://www.inkscape.org/namespaces/inkscape"
   id="SvgjsSvg1000"
   version="1.1"
   width="6"
   height="13"
   viewBox="0 0 6 13"
   inkscape:version="0.91 r13725"
   sodipodi:docname="arrow_up.svg">
  <metadata
     id="metadata11">
    <rdf:RDF>
      <cc:Work
         rdf:about="">
        <dc:format>image/svg+xml</dc:format>
        <dc:type
           rdf:resource="http://purl.org/dc/dcmitype/StillImage" />
        <dc:title>Forma 1 copy 7</dc:title>
      </cc:Work>
    </rdf:RDF>
  </metadata>
  <sodipodi:namedview
     pagecolor="#ffffff"
     bordercolor="#666666"
     borderopacity="1"
     objecttolerance="10"
     gridtolerance="10"
     guidetolerance="10"
     inkscape:pageopacity="0"
     inkscape:pageshadow="2"
     inkscape:window-width="1920"
     inkscape:window-height="1056"
     id="namedview9"
     showgrid="false"
     inkscape:zoom="16.89163"
     inkscape:cx="-1.4507215"
     inkscape:cy="4.908937"
     inkscape:window-x="0"
     inkscape:window-y="24"
     inkscape:window-maximized="1"
     inkscape:current-layer="SvgjsSvg1000" />
  <title
     id="title3">Forma 1 copy 7</title>
  <desc
     id="desc5">Created with Avocode.</desc>
  <defs
     id="SvgjsDefs1001" />
  <path
     id="SvgjsPath1007"
     d="M 0.05558439,3.42 2.8545844,0.087 c 0.053,-0.058 0.116,-0.087 0.189,-0.087 0.069,0 0.129,0.029 0.182,0.087 l 2.695,3.333 c 0.079,0.093 0.095,0.194 0.046,0.304 -0.049,0.11 -0.137,0.165 -0.264,0.165 l -1.622,0.125 0,8.709 c 0,0.08 -0.025,0.146 -0.076,0.198 -0.051,0.051 -0.116,0.077 -0.195,0.077 l -1.632,0 c -0.079,0 -0.144,-0.026 -0.195,-0.077 -0.051,-0.052 -0.077,-0.118 -0.077,-0.198 l 0,-8.709 -1.66000001,-0.125 c -0.105,0 -0.181,-0.055 -0.229,-0.165 -0.042,-0.11 -0.029,-0.211 0.039,-0.304 z"
     inkscape:connector-curvature="0"
     style="fill:#3be31f;fill-opacity:1"
     sodipodi:nodetypes="ccsccsccscsscscccc" />
</svg>
