<svg id="SvgjsSvg1011" xmlns="http://www.w3.org/2000/svg" version="1.1" xmlns:xlink="http://www.w3.org/1999/xlink" xmlns:svgjs="http://svgjs.com/svgjs" width="18" height="9" viewBox="0 0 18 9"><title>стрелка вправо copy 3</title><desc>Created with Avocode.</desc><defs id="SvgjsDefs1012"></defs><path id="SvgjsPath1013" d="M90.2742 109.838C90.37419999999999 109.77999999999999 90.4914 109.747 90.6158 109.747L103.315 109.888L100.247 107.677C99.9378 107.45400000000001 99.8643 107.02300000000001 100.083 106.715C100.141 106.632 100.215 106.56700000000001 100.297 106.52000000000001C100.52199999999999 106.39000000000001 100.812 106.39600000000002 101.039 106.55900000000001L105.852 110.028C105.867 110.039 105.876 110.05600000000001 105.89 110.069C105.919 110.09400000000001 105.946 110.119 105.971 110.15C105.98400000000001 110.165 106.001 110.173 106.012 110.19000000000001C106.017 110.19600000000001 106.018 110.20400000000001 106.022 110.21100000000001C106.037 110.23300000000002 106.046 110.25500000000001 106.058 110.27900000000001C106.07600000000001 110.31300000000002 106.08800000000001 110.34700000000001 106.10000000000001 110.38400000000001C106.10900000000001 110.40900000000002 106.12100000000001 110.43300000000002 106.126 110.46000000000001C106.131 110.486 106.129 110.51100000000001 106.132 110.537C106.132 110.555 106.141 110.572 106.141 110.59100000000001C106.141 110.61000000000001 106.132 110.626 106.131 110.64500000000001C106.129 110.671 106.131 110.69700000000002 106.126 110.72200000000001C106.12100000000001 110.74900000000001 106.108 110.77300000000001 106.10000000000001 110.799C106.08800000000001 110.83500000000001 106.07600000000001 110.869 106.05900000000001 110.903C106.04800000000002 110.926 106.03900000000002 110.94900000000001 106.02400000000002 110.97C106.02000000000001 110.977 106.02000000000001 110.985 106.01500000000001 110.992C106.00400000000002 111.007 105.98700000000001 111.015 105.97500000000001 111.02900000000001C105.95 111.06000000000002 105.923 111.08600000000001 105.89200000000001 111.11200000000001C105.879 111.12400000000001 105.87200000000001 111.14000000000001 105.85600000000001 111.15L101.07600000000001 114.572C100.76700000000001 114.796 100.34 114.718 100.12 114.408C99.89760000000001 114.097 99.9672 113.667 100.274 113.44800000000001L103.32000000000001 111.26700000000001L90.6225 111.12500000000001C90.2436 111.12400000000001 89.9357 110.81300000000002 89.9338 110.43300000000002C89.9325 110.17800000000003 90.0694 109.95600000000002 90.27420000000001 109.83800000000002Z " fill="#ffffff" fill-opacity="1" transform="matrix(1,0,0,1,-89,-106)"></path></svg>