<?xml version="1.0" encoding="UTF-8" standalone="no"?>
<svg
   xmlns:dc="http://purl.org/dc/elements/1.1/"
   xmlns:cc="http://creativecommons.org/ns#"
   xmlns:rdf="http://www.w3.org/1999/02/22-rdf-syntax-ns#"
   xmlns:svg="http://www.w3.org/2000/svg"
   xmlns="http://www.w3.org/2000/svg"
   xmlns:sodipodi="http://sodipodi.sourceforge.net/DTD/sodipodi-0.dtd"
   xmlns:inkscape="http://www.inkscape.org/namespaces/inkscape"
   id="SvgjsSvg1008"
   version="1.1"
   width="6"
   height="13"
   viewBox="0 0 6 13"
   inkscape:version="0.91 r13725"
   sodipodi:docname="arrow_down.svg">
  <metadata
     id="metadata11">
    <rdf:RDF>
      <cc:Work
         rdf:about="">
        <dc:format>image/svg+xml</dc:format>
        <dc:type
           rdf:resource="http://purl.org/dc/dcmitype/StillImage" />
        <dc:title>Forma 1 copy 7</dc:title>
      </cc:Work>
    </rdf:RDF>
  </metadata>
  <sodipodi:namedview
     pagecolor="#ffffff"
     bordercolor="#666666"
     borderopacity="1"
     objecttolerance="10"
     gridtolerance="10"
     guidetolerance="10"
     inkscape:pageopacity="0"
     inkscape:pageshadow="2"
     inkscape:window-width="1920"
     inkscape:window-height="1056"
     id="namedview9"
     showgrid="false"
     inkscape:zoom="27.174603"
     inkscape:cx="1.4825934"
     inkscape:cy="7.5404551"
     inkscape:window-x="0"
     inkscape:window-y="24"
     inkscape:window-maximized="1"
     inkscape:current-layer="SvgjsSvg1008" />
  <title
     id="title3">Forma 1 copy 7</title>
  <desc
     id="desc5">Created with Avocode.</desc>
  <defs
     id="SvgjsDefs1009" />
  <path
     id="SvgjsPath1010"
     d="m 0.01502341,9.578 2.79999999,3.333 c 0.05,0.058 0.12,0.086 0.19,0.086 0.07,0 0.13,-0.028 0.18,-0.086 l 2.7,-3.333 c 0.08,-0.092 0.09,-0.194 0.04,-0.304 -0.05,-0.11 -0.13,-0.165 -0.26,-0.165 l -1.62,-0.124 0,-8.71 c 0,-0.08 -0.03,-0.146 -0.08,-0.198 -0.05,-0.051 -0.12,-0.076 -0.19,-0.076 l -1.64,0 c -0.08,0 -0.14,0.025 -0.19,0.076 -0.05,0.052 -0.08,0.118 -0.08,0.198 l 0,8.71 -1.65999999,0.124 c -0.1,0 -0.18,0.055 -0.23,0.165 -0.04,0.11 -0.03,0.212 0.04,0.304 z"
     inkscape:connector-curvature="0"
     style="fill:#ff0000;fill-opacity:1"
     sodipodi:nodetypes="ccsccsccscsscscccc" />
</svg>
