<svg id="SvgjsSvg1000" xmlns="http://www.w3.org/2000/svg" version="1.1" xmlns:xlink="http://www.w3.org/1999/xlink" xmlns:svgjs="http://svgjs.com/svgjs" width="41" height="39" viewBox="0 0 41 39"><title>Forma 1</title><desc>Created with Avocode.</desc><defs id="SvgjsDefs1001"></defs><path id="SvgjsPath1007" d="M604.317 1536.62V1509.6699999999998H596.117V1536.62H594.067V1515.1899999999998H585.867V1536.62H583.817V1520.7199999999998H575.617V1536.62H573.567V1526.9399999999998H565.367V1536.62H564.683C564.306 1536.62 564 1536.9299999999998 564 1537.31C564 1537.69 564.306 1538 564.683 1538H604.317C604.694 1538 605 1537.69 605 1537.31C605 1536.9299999999998 604.694 1536.62 604.317 1536.62ZM566.733 1536.62V1528.33H572.1999999999999V1536.62ZM576.983 1536.62V1522.11H582.4499999999999V1536.62ZM587.233 1536.62V1516.58H592.6999999999999V1536.62ZM597.483 1536.62V1511.05H602.9499999999999V1536.62ZM569.487 1517.5C569.603 1517.5 569.721 1517.47 569.828 1517.4L594.612 1502.93L593.0609999999999 1506.38C592.9039999999999 1506.73 593.0559999999999 1507.14 593.4 1507.3000000000002C593.491 1507.3400000000001 593.588 1507.3600000000001 593.683 1507.3600000000001C593.942 1507.3600000000001 594.1899999999999 1507.21 594.305 1506.95L596.7389999999999 1501.54C596.747 1501.52 596.7449999999999 1501.51 596.7509999999999 1501.49C596.7639999999999 1501.45 596.7749999999999 1501.42 596.7809999999998 1501.38C596.7849999999999 1501.3600000000001 596.7959999999998 1501.3400000000001 596.7969999999998 1501.3200000000002C596.7979999999998 1501.3100000000002 596.7939999999998 1501.3100000000002 596.7949999999998 1501.3000000000002C596.7959999999998 1501.2700000000002 596.7939999999999 1501.2500000000002 596.7919999999998 1501.2200000000003C596.7899999999998 1501.1800000000003 596.7839999999998 1501.1500000000003 596.7759999999998 1501.1100000000004C596.7709999999998 1501.0800000000004 596.7689999999999 1501.0600000000004 596.7599999999999 1501.0300000000004C596.7519999999998 1501.0100000000004 596.7379999999998 1500.9900000000005 596.7269999999999 1500.9600000000005C596.7179999999998 1500.9500000000005 596.7179999999998 1500.9300000000005 596.7079999999999 1500.9100000000005C596.6989999999998 1500.8900000000006 596.6819999999999 1500.8800000000006 596.6709999999998 1500.8700000000006C596.6569999999998 1500.8500000000006 596.6459999999998 1500.8200000000006 596.6289999999998 1500.8000000000006C596.6109999999998 1500.7800000000007 596.5889999999998 1500.7700000000007 596.5679999999998 1500.7500000000007C596.5399999999997 1500.7200000000007 596.5119999999997 1500.7000000000007 596.4809999999998 1500.6800000000007C596.4599999999998 1500.6700000000008 596.4399999999997 1500.6500000000008 596.4169999999998 1500.6400000000008C596.4099999999999 1500.6400000000008 596.4059999999998 1500.6300000000008 596.3979999999998 1500.6300000000008C596.3809999999997 1500.6200000000008 596.3629999999998 1500.6200000000008 596.3459999999998 1500.6100000000008C596.3079999999998 1500.6000000000008 596.2709999999997 1500.5900000000008 596.2319999999997 1500.5800000000008C596.2139999999997 1500.5800000000008 596.1999999999997 1500.5700000000008 596.1809999999997 1500.5700000000008L590.3309999999997 1499.990000000001C589.9519999999997 1499.960000000001 589.6209999999996 1500.240000000001 589.5849999999997 1500.620000000001C589.5479999999997 1501.0000000000011 589.8229999999998 1501.330000000001 590.1979999999998 1501.370000000001L593.9259999999997 1501.740000000001L569.1449999999998 1516.210000000001C568.8169999999998 1516.400000000001 568.7059999999998 1516.8200000000008 568.8949999999998 1517.150000000001C569.0209999999997 1517.370000000001 569.2509999999997 1517.500000000001 569.4869999999997 1517.500000000001Z " fill="#ff3300" fill-opacity="1" transform="matrix(1,0,0,1,-564,-1499)"></path></svg>