<?xml version="1.0" encoding="UTF-8" standalone="no"?>
<svg
   xmlns:dc="http://purl.org/dc/elements/1.1/"
   xmlns:cc="http://creativecommons.org/ns#"
   xmlns:rdf="http://www.w3.org/1999/02/22-rdf-syntax-ns#"
   xmlns:svg="http://www.w3.org/2000/svg"
   xmlns="http://www.w3.org/2000/svg"
   xmlns:sodipodi="http://sodipodi.sourceforge.net/DTD/sodipodi-0.dtd"
   xmlns:inkscape="http://www.inkscape.org/namespaces/inkscape"
   id="SvgjsSvg1011"
   version="1.1"
   width="45"
   height="35"
   viewBox="0 0 45 35"
   inkscape:version="0.48.4 r9939"
   sodipodi:docname="money.svg">
  <metadata
     id="metadata11">
    <rdf:RDF>
      <cc:Work
         rdf:about="">
        <dc:format>image/svg+xml</dc:format>
        <dc:type
           rdf:resource="http://purl.org/dc/dcmitype/StillImage" />
        <dc:title>Forma 1</dc:title>
      </cc:Work>
    </rdf:RDF>
  </metadata>
  <sodipodi:namedview
     pagecolor="#ffffff"
     bordercolor="#666666"
     borderopacity="1"
     objecttolerance="10"
     gridtolerance="10"
     guidetolerance="10"
     inkscape:pageopacity="0"
     inkscape:pageshadow="2"
     inkscape:window-width="1920"
     inkscape:window-height="1056"
     id="namedview9"
     showgrid="false"
     inkscape:zoom="2.1350906"
     inkscape:cx="375.80333"
     inkscape:cy="-6.6831598"
     inkscape:window-x="0"
     inkscape:window-y="24"
     inkscape:window-maximized="1"
     inkscape:current-layer="SvgjsSvg1011" />
  <title
     id="title3">Forma 1</title>
  <desc
     id="desc5">Created with Avocode.</desc>
  <defs
     id="SvgjsDefs1012" />
  <path
     id="SvgjsPath1013"
     d="m 14.143055,24.218364 2.332,0 c 0.396,0 0.717,-0.32 0.717,-0.72 -0.001,-0.4 -0.321,-0.73 -0.717,-0.73 l -13.873,0 c -0.345,0 -0.64,0.25 -0.704,0.59 l -1.53600004,8.25 c -0.04,0.21 0.016,0.43 0.152,0.6 0.136,0.16 0.339,0.26 0.55200004,0.26 l 13.748,0 c 0.398,0 0.719,-0.32 0.719,-0.73 0,-0.06 -0.009,-0.12 -0.025,-0.18 z m -12.213,6.8 1.266,-6.8 9.488,0 1.266,6.8 z m 41.908,-7.66 c -0.064,-0.34 -0.36,-0.59 -0.704,-0.59 l -23.792,0 c -0.345,0 -0.641,0.25 -0.705,0.59 l -0.025,0.14 -1.511,8.11 c -0.008,0.04 -0.011,0.09 -0.011,0.13 0,0.17 0.056,0.34 0.164,0.47 0.136,0.16 0.338,0.26 0.552,0.26 l 26.864,0 c 0.213,0 0.415,-0.1 0.552,-0.26 0.136,-0.17 0.192,-0.39 0.152,-0.6 z m -14.415,0.86 1.266,6.8 -12.019,0 1.266,-6.8 z m 2.725,6.8 -1.266,-6.8 11.658,0 1.265,6.8 z m 8.66,-5.34 -3.56,0 c -0.396,0 -0.717,0.32 -0.717,0.72 0,0.4 0.321,0.73 0.717,0.73 l 3.56,0 c 0.396,0 0.717,-0.33 0.717,-0.73 0,-0.4 -0.321,-0.72 -0.717,-0.72 z m -6.427,0 -0.956,0 c -0.395,0 -0.716,0.32 -0.716,0.72 0,0.4 0.321,0.73 0.716,0.73 l 0.956,0 c 0.396,0 0.717,-0.33 0.717,-0.73 0,-0.4 -0.321,-0.72 -0.717,-0.72 z m -33.315,-4.36 13.748,0 c 0.398,0 0.719,-0.33 0.719,-0.73 0,-0.06 -0.009,-0.13 -0.025,-0.19 l -1.365,-7.33 2.332,0 c 0.396,0 0.716,-0.32 0.717,-0.72 0,-0.41 -0.321,-0.73 -0.717,-0.73 l -13.873,0 c -0.345,0 -0.64,0.25 -0.704,0.59 l -1.53600004,8.25 c -0.04,0.21 0.016,0.43 0.152,0.6 0.136,0.16 0.339,0.26 0.55200004,0.26 z m 12.884,-1.45 -12.02,0 1.266,-6.8 9.488,0 z m 19.437,-3.89 7.421,0 c 0.396,0 0.717,-0.33 0.717,-0.73 0,-0.4 -0.321,-0.73 -0.717,-0.73 l -7.421,0 c -0.396,0 -0.717,0.33 -0.717,0.73 0,0.4 0.321,0.73 0.717,0.73 z m -16.297,4.61 c 0,0.17 0.056,0.34 0.164,0.47 0.136,0.16 0.338,0.26 0.552,0.26 l 26.864,0 c 0.213,0 0.415,-0.1 0.552,-0.26 0.136,-0.17 0.192,-0.39 0.152,-0.6 l -1.536,-8.25 c -0.064,-0.34 -0.36,-0.59 -0.704,-0.59 l -23.792,0 c -0.345,0 -0.641,0.25 -0.705,0.59 l -0.025,0.14 -1.511,8.11 c -0.008,0.04 -0.011,0.09 -0.011,0.13 z m 12.726,-5.41 c 0.073,0.39 0.447,0.65 0.837,0.58 0.389,-0.08 0.644,-0.46 0.571,-0.85 l -0.342,-1.84 11.658,0 1.265,6.8 -11.657,0 -0.392,-2.11 c -0.074,-0.39 -0.448,-0.65 -0.837,-0.58 -0.39,0.08 -0.645,0.46 -0.572,0.85 l 0.342,1.84 -12.019,0 1.266,-6.8 9.487,0 z m 2.622,-11.8099998 -7.383,0 c -0.395,0 -0.716,0.33 -0.716,0.73 0,0.4 0.321,0.72 0.716,0.72 l 7.383,0 c 0.396,0 0.717,-0.32 0.717,-0.72 0,-0.4 -0.321,-0.73 -0.717,-0.73 z m -23.002,6.7999998 26.864,0 c 0.213,0 0.416,-0.1 0.552,-0.2699998 0.136,-0.16 0.192,-0.38 0.152,-0.59 l -1.536,-8.25 c -0.064,-0.34 -0.359,-0.59 -0.704,-0.59 l -23.792,0 c -0.345,0 -0.641,0.25 -0.704,0.59 l -1.537,8.25 c -0.039,0.21 0.017,0.43 0.153,0.59 0.136,0.1699998 0.338,0.2699998 0.552,0.2699998 z m 14.342,-1.4499998 -1.266,-6.8 11.658,0 1.266,6.8 z m -2.724,-6.8 1.265,6.8 -12.019,0 1.266,-6.8 z"
     inkscape:connector-curvature="0"
     style="fill:#ff3300;fill-opacity:1"
     sodipodi:nodetypes="cscsscccsssccccccccsscccscsscccccccccccccsssssssssssssssssccscsscccscccccsssssssscsscccsscccscccccccccccccccssssssssscccsscccscccccccccc" />
</svg>
