<?xml version="1.0" encoding="UTF-8" standalone="no"?>
<svg
   xmlns:dc="http://purl.org/dc/elements/1.1/"
   xmlns:cc="http://creativecommons.org/ns#"
   xmlns:rdf="http://www.w3.org/1999/02/22-rdf-syntax-ns#"
   xmlns:svg="http://www.w3.org/2000/svg"
   xmlns="http://www.w3.org/2000/svg"
   xmlns:sodipodi="http://sodipodi.sourceforge.net/DTD/sodipodi-0.dtd"
   xmlns:inkscape="http://www.inkscape.org/namespaces/inkscape"
   id="SvgjsSvg1014"
   version="1.1"
   width="17"
   height="18"
   viewBox="0 0 17 18"
   inkscape:version="0.91 r13725"
   sodipodi:docname="icon_tell.svg">
  <metadata
     id="metadata11">
    <rdf:RDF>
      <cc:Work
         rdf:about="">
        <dc:format>image/svg+xml</dc:format>
        <dc:type
           rdf:resource="http://purl.org/dc/dcmitype/StillImage" />
        <dc:title>мессенджеры-иконки</dc:title>
      </cc:Work>
    </rdf:RDF>
  </metadata>
  <sodipodi:namedview
     pagecolor="#ffffff"
     bordercolor="#666666"
     borderopacity="1"
     objecttolerance="10"
     gridtolerance="10"
     guidetolerance="10"
     inkscape:pageopacity="0"
     inkscape:pageshadow="2"
     inkscape:window-width="1920"
     inkscape:window-height="1056"
     id="namedview9"
     showgrid="false"
     inkscape:zoom="9.8015267"
     inkscape:cx="65.143163"
     inkscape:cy="9.4764782"
     inkscape:window-x="0"
     inkscape:window-y="24"
     inkscape:window-maximized="1"
     inkscape:current-layer="SvgjsSvg1014" />
  <title
     id="title3">мессенджеры-иконки</title>
  <desc
     id="desc5">Created with Avocode.</desc>
  <defs
     id="SvgjsDefs1015" />
  <path
     id="SvgjsPath1016"
     d="m 16.368286,9.3279751 c -0.116,0.12 -0.279,0.18 -0.483,0.18 l -0.02,0 c -0.652,-0.01 -0.662,-0.62 -0.667,-0.92 -10e-4,-0.08 -0.002,-0.16 -0.01,-0.22 -0.472,-3.76 -2.176,-5.53 -5.8799996,-6.11 -0.053,0 -0.116,-0.01 -0.183,-0.01 -0.276,-0.02 -0.852,-0.07 -0.818,-0.67 0.015,-0.26 0.13,-0.69000002 0.738,-0.69000002 0.069,0 0.137,0 0.197,0.01 l 0.134,0 0.046,0 0.046,0 C 13.283286,1.0279751 16.588286,4.5179751 16.541286,8.3679751 c -0.001,0.05 0.001,0.11 0.004,0.17 0.012,0.26 0.026,0.57 -0.177,0.79 z m -6.6869996,-4.03 c 0.5709996,-0.01 1.1979996,0.29 1.7179996,0.82 0.519,0.53 0.824,1.2 0.817,1.79 0.018,0.56 -0.185,0.87 -0.605,0.92 -0.026,0 -0.053,0.01 -0.078,0.01 -0.349,0 -0.621,-0.29 -0.661,-0.7 -0.087,-0.87 -0.52,-1.34 -1.3629996,-1.47 -0.233,-0.04 -0.488,-0.11 -0.622,-0.34 -0.091,-0.15 -0.1,-0.34 -0.026,-0.55 0.157,-0.46 0.605,-0.47 0.82,-0.48 z m -1.098,-1.66 c 0.036,-0.22 0.174,-0.58 0.688,-0.58 0.13,0 0.258,0.02 0.383,0.04 0.057,0.01 0.112,0.02 0.162,0.03 2.5099996,0.3 4.5369996,2.5 4.5159996,4.9 0,0.01 0,0.02 -0.002,0.03 -0.006,0.04 -0.004,0.11 -10e-4,0.18 0.008,0.24 0.026,0.76 -0.531,0.84 -0.056,0.01 -0.109,0.02 -0.159,0.02 -0.598,0 -0.632,-0.57 -0.648,-0.83 -0.005,-0.08 -0.009,-0.14 -0.018,-0.2 -0.371,-2.25 -1.131,-3.05 -3.3859996,-3.56 -0.056,-0.01 -0.123,-0.02 -0.193,-0.03 -0.241,-0.04 -0.541,-0.08 -0.712,-0.31 -0.101,-0.14 -0.134,-0.32 -0.099,-0.53 z m -3.318,5.46 c -0.34,-0.77 -0.23,-1.27 0.368,-1.68 0.339,-0.23 0.971,-0.66 0.926,-1.49 -0.05,-0.94 -2.108,-3.77 -2.975,-4.09 -0.367,-0.14 -0.753,-0.14 -1.149,0 -0.996,0.33 -1.712,0.93 -2.068,1.71 -0.345,0.76 -0.329,1.65 0.045,2.57 1.081,2.68 2.602,5.0099999 4.519,6.9399999 1.877,1.88 4.184,3.43 6.8569996,4.59 0.241,0.1 0.493,0.16 0.678,0.2 0.063,0.02 0.117,0.03 0.157,0.04 0.021,0 0.044,0.01 0.066,0.01 l 0.021,0 c 1.257,0 2.767,-1.16 3.23,-2.48 0.407,-1.16 -0.335,-1.73 -0.931,-2.19 -0.079,-0.06 -0.16,-0.12 -0.236,-0.18 -0.405,-0.33 -0.835,-0.63 -1.251,-0.92 -0.087,-0.07 -0.173,-0.13 -0.259,-0.19 -0.533,-0.37 -1.012,-0.56 -1.465,-0.56 -0.61,0 -1.141,0.34 -1.58,1.01 -0.195,0.3 -0.4309996,0.44 -0.7209996,0.44 -0.172,0 -0.367,-0.05 -0.581,-0.14 -1.72,-0.79 -2.949,-2 -3.651,-3.5899999 z"
     inkscape:connector-curvature="0"
     style="fill:#f3f6f7;fill-opacity:1"
     sodipodi:nodetypes="csccccccscccccccccccsccccccsccccccscccccccccccccccccsscccccscscc" />
</svg>
