<svg id="SvgjsSvg1000" xmlns="http://www.w3.org/2000/svg" version="1.1" xmlns:xlink="http://www.w3.org/1999/xlink" xmlns:svgjs="http://svgjs.com/svgjs" width="24" height="16" viewBox="0 0 24 16"><title>Shape 1 copy 4</title><desc>Created with Avocode.</desc><defs id="SvgjsDefs1001"></defs><path id="SvgjsPath1007" d="M112.461 2309.06H111.016V2310.5099999999998C111.016 2310.81 110.771 2311.06 110.468 2311.06H108.51700000000001C108.21400000000001 2311.06 107.96900000000001 2310.81 107.96900000000001 2310.5099999999998V2309.06H106.52300000000001C106.221 2309.06 105.97600000000001 2308.81 105.97600000000001 2308.5V2306.54C105.97600000000001 2306.24 106.22100000000002 2305.99 106.52300000000001 2305.99H107.96900000000001V2304.54C107.96900000000001 2304.23 108.21400000000001 2303.99 108.51700000000001 2303.99H110.468C110.771 2303.99 111.016 2304.2299999999996 111.016 2304.54V2305.99H112.461C112.764 2305.99 113.009 2306.24 113.009 2306.54V2308.5C113.009 2308.81 112.764 2309.06 112.461 2309.06ZM104.548 2308.59L104.56700000000001 2307.09C104.56700000000001 2307.06 104.56500000000001 2307.03 104.56 2307L104.48100000000001 2306.49C104.43900000000001 2306.22 104.209 2306.0299999999997 103.93900000000001 2306.0299999999997H97.6093C97.3067 2306.0299999999997 97.06150000000001 2306.2699999999995 97.06150000000001 2306.58V2308.7799999999997C97.06150000000001 2309.08 97.3067 2309.33 97.6093 2309.33H100.836C100.688 2309.66 100.455 2310 100.161 2310.3199999999997C99.5181 2311.0199999999995 98.5594 2311.4199999999996 97.5308 2311.4199999999996C96.4803 2311.4199999999996 95.4743 2311.0099999999998 94.7707 2310.2799999999997C93.30630000000001 2308.7799999999997 93.32310000000001 2306.1699999999996 94.80640000000001 2304.68C95.50480000000002 2303.99 96.4668 2303.5899999999997 97.44560000000001 2303.5899999999997C98.10930000000002 2303.5899999999997 98.74730000000001 2303.7699999999995 99.29150000000001 2304.1099999999997L99.91320000000002 2304.5399999999995C100.13000000000002 2304.6799999999994 100.42100000000002 2304.6599999999994 100.60800000000002 2304.4699999999993L102.42100000000002 2302.669999999999C102.53700000000002 2302.5499999999993 102.59600000000002 2302.389999999999 102.58100000000002 2302.229999999999C102.56700000000002 2302.059999999999 102.48000000000002 2301.909999999999 102.34600000000002 2301.8199999999993L101.29200000000002 2301.0899999999992C101.27000000000001 2301.079999999999 101.24800000000002 2301.0699999999993 101.22400000000002 2301.0499999999993L100.20300000000002 2300.5499999999993C100.19000000000001 2300.539999999999 100.17600000000002 2300.5299999999993 100.16200000000002 2300.5299999999993C99.28260000000002 2300.1799999999994 98.35600000000002 2299.999999999999 97.40810000000002 2299.999999999999C95.45390000000002 2299.999999999999 93.61050000000002 2300.7599999999993 92.21760000000002 2302.129999999999C90.80310000000001 2303.519999999999 90.01660000000003 2305.4099999999994 90.00300000000001 2307.4499999999994C89.98930000000001 2309.4899999999993 90.75070000000001 2311.399999999999 92.14690000000002 2312.8099999999995C93.53230000000002 2314.1999999999994 95.49770000000002 2315.0099999999993 97.53940000000001 2315.0099999999993C99.55940000000001 2315.0099999999993 101.45500000000001 2314.2199999999993 102.73900000000002 2312.8399999999992C103.75700000000002 2311.749999999999 104.38100000000001 2310.2999999999993 104.54500000000002 2308.6399999999994C104.54700000000001 2308.6199999999994 104.54800000000002 2308.5999999999995 104.54800000000002 2308.5899999999992Z " fill="#f3f6f7" fill-opacity="1" transform="matrix(1,0,0,1,-90,-2300)"></path></svg>