<svg id="SvgjsSvg1014" xmlns="http://www.w3.org/2000/svg" version="1.1" xmlns:xlink="http://www.w3.org/1999/xlink" xmlns:svgjs="http://svgjs.com/svgjs" width="131" height="18" viewBox="0 0 131 18"><title>мессенджеры-иконки</title><desc>Created with Avocode.</desc><defs id="SvgjsDefs1015"></defs><path id="SvgjsPath1016" d="M455.109 2312.57C453.73699999999997 2312.57 452.382 2312.23 451.183 2311.5800000000004L446.8 2312.9900000000002C446.779 2312.9900000000002 446.75600000000003 2313.0000000000005 446.73400000000004 2313.0000000000005C446.67600000000004 2313.0000000000005 446.619 2312.9700000000003 446.57800000000003 2312.9300000000003C446.52000000000004 2312.8700000000003 446.50000000000006 2312.78 446.526 2312.7100000000005L447.951 2308.4700000000007C447.207 2307.2100000000005 446.814 2305.7600000000007 446.814 2304.2800000000007C446.814 2299.7100000000005 450.535 2295.9900000000007 455.10900000000004 2295.9900000000007C459.682 2295.9900000000007 463.403 2299.7100000000005 463.403 2304.2800000000007C463.403 2308.850000000001 459.682 2312.5700000000006 455.10900000000004 2312.5700000000006ZM455.109 2297.72C451.486 2297.72 448.53799999999995 2300.66 448.53799999999995 2304.2799999999997C448.53799999999995 2305.6699999999996 448.97099999999995 2306.9999999999995 449.78899999999993 2308.1299999999997C449.8309999999999 2308.1899999999996 449.8429999999999 2308.2599999999998 449.81999999999994 2308.3299999999995L449.11099999999993 2310.4399999999996L451.30699999999996 2309.7299999999996C451.328 2309.7299999999996 451.35099999999994 2309.7199999999993 451.37299999999993 2309.7199999999993C451.4149999999999 2309.7199999999993 451.45699999999994 2309.7299999999996 451.49299999999994 2309.7599999999993C452.5679999999999 2310.4699999999993 453.8179999999999 2310.8399999999992 455.1089999999999 2310.8399999999992C458.73099999999994 2310.8399999999992 461.67799999999994 2307.899999999999 461.67799999999994 2304.2799999999993C461.67799999999994 2300.6599999999994 458.73099999999994 2297.7199999999993 455.1089999999999 2297.7199999999993ZM459.277 2307.15C459.43899999999996 2306.7000000000003 459.48199999999997 2306.2000000000003 459.37399999999997 2306.02C459.29999999999995 2305.9 459.17199999999997 2305.84 459.01099999999997 2305.7599999999998C458.97799999999995 2305.7499999999995 457.74699999999996 2305.14 457.52799999999996 2305.06C457.43899999999996 2305.02 457.34299999999996 2304.99 457.24199999999996 2304.99C457.075 2304.99 456.936 2305.08 456.82699999999994 2305.24C456.70399999999995 2305.4199999999996 456.33099999999996 2305.8599999999997 456.21599999999995 2305.99C456.20099999999996 2306.0099999999998 456.1809999999999 2306.0299999999997 456.1689999999999 2306.0299999999997C456.1579999999999 2306.0299999999997 455.9669999999999 2305.95 455.90899999999993 2305.93C454.58899999999994 2305.35 453.58599999999996 2303.96 453.44899999999996 2303.73C453.429 2303.69 453.42799999999994 2303.68 453.42799999999994 2303.68C453.43299999999994 2303.66 453.4769999999999 2303.6099999999997 453.49999999999994 2303.5899999999997C453.56699999999995 2303.5199999999995 453.63999999999993 2303.4399999999996 453.7099999999999 2303.35C453.7439999999999 2303.31 453.77699999999993 2303.27 453.80999999999995 2303.23C453.9119999999999 2303.11 453.95699999999994 2303.02 454.00999999999993 2302.91L454.0369999999999 2302.8599999999997C454.16599999999994 2302.5999999999995 454.0559999999999 2302.3799999999997 454.0209999999999 2302.3099999999995C453.99099999999993 2302.2499999999995 453.4719999999999 2300.9899999999993 453.4159999999999 2300.8599999999997C453.2829999999999 2300.5399999999995 453.1079999999999 2300.39 452.86399999999986 2300.39C452.84099999999984 2300.39 452.86399999999986 2300.39 452.76899999999983 2300.39C452.65299999999985 2300.4 452.02299999999985 2300.48 451.74499999999983 2300.66C451.4499999999998 2300.8399999999997 450.9499999999998 2301.44 450.9499999999998 2302.49C450.9499999999998 2303.4399999999996 451.5459999999998 2304.33 451.8019999999998 2304.6699999999996C451.80799999999977 2304.68 451.81999999999977 2304.7 451.8369999999998 2304.72C452.81699999999984 2306.16 454.0389999999998 2307.23 455.2769999999998 2307.73C456.4699999999998 2308.21 457.0339999999998 2308.27 457.3549999999998 2308.27C457.4899999999998 2308.27 457.5979999999998 2308.25 457.6929999999998 2308.25L457.7539999999998 2308.24C458.16599999999977 2308.2 459.0709999999998 2307.7299999999996 459.2769999999998 2307.1499999999996ZM387.173 2306.3C387.293 2305.75 387.357 2305.17 387.357 2304.5800000000004C387.357 2300.1700000000005 383.80100000000004 2296.5800000000004 379.415 2296.5800000000004C378.952 2296.5800000000004 378.499 2296.6200000000003 378.057 2296.7000000000003C377.34700000000004 2296.2500000000005 376.50800000000004 2295.9900000000002 375.607 2295.9900000000002C373.064 2295.9900000000002 371.002 2298.07 371.002 2300.63C371.002 2301.48 371.233 2302.29 371.635 2302.9700000000003C371.53 2303.4900000000002 371.474 2304.03 371.474 2304.5800000000004C371.474 2309.0000000000005 375.03 2312.5800000000004 379.41499999999996 2312.5800000000004C379.912 2312.5800000000004 380.39799999999997 2312.53 380.86899999999997 2312.4500000000003C381.518 2312.8 382.25899999999996 2313.0000000000005 383.046 2313.0000000000005C385.59 2313.0000000000005 387.652 2310.9200000000005 387.652 2308.3600000000006C387.652 2307.620000000001 387.479 2306.9200000000005 387.173 2306.3000000000006ZM383.488 2308.41C383.121 2308.93 382.578 2309.3399999999997 381.875 2309.64C381.178 2309.93 380.343 2310.08 379.393 2310.08C378.253 2310.08 377.296 2309.88 376.54999999999995 2309.48C376.01599999999996 2309.19 375.57599999999996 2308.79 375.24299999999994 2308.31C374.9049999999999 2307.82 374.7339999999999 2307.33 374.7339999999999 2306.86C374.7339999999999 2306.57 374.84599999999995 2306.32 375.06499999999994 2306.11C375.28299999999996 2305.9 375.56199999999995 2305.8 375.89399999999995 2305.8C376.167 2305.8 376.40199999999993 2305.88 376.59399999999994 2306.04C376.77699999999993 2306.2 376.93299999999994 2306.43 377.0589999999999 2306.73C377.19999999999993 2307.05 377.3539999999999 2307.33 377.5159999999999 2307.54C377.6709999999999 2307.75 377.8949999999999 2307.92 378.1819999999999 2308.06C378.4689999999999 2308.2 378.8579999999999 2308.27 379.3349999999999 2308.27C379.99099999999993 2308.27 380.5299999999999 2308.13 380.93499999999995 2307.85C381.3299999999999 2307.58 381.52199999999993 2307.25 381.52199999999993 2306.85C381.52199999999993 2306.5299999999997 381.4219999999999 2306.29 381.21599999999995 2306.0899999999997C380.99899999999997 2305.89 380.71399999999994 2305.7299999999996 380.36799999999994 2305.62C380.00699999999995 2305.5099999999998 379.51699999999994 2305.38 378.91099999999994 2305.2599999999998C378.0899999999999 2305.08 377.39199999999994 2304.87 376.83599999999996 2304.6299999999997C376.83399999999995 2304.6299999999997 376.83199999999994 2304.6299999999997 376.83 2304.6299999999997C376.26099999999997 2304.39 375.80199999999996 2304.0499999999997 375.466 2303.6199999999994C375.125 2303.1899999999996 374.952 2302.6599999999994 374.952 2302.0199999999995C374.952 2301.4199999999996 375.133 2300.8699999999994 375.491 2300.3999999999996C375.846 2299.9399999999996 376.365 2299.5699999999997 377.03299999999996 2299.3199999999997C377.69199999999995 2299.08 378.47599999999994 2298.95 379.36299999999994 2298.95C380.07199999999995 2298.95 380.69499999999994 2299.04 381.21599999999995 2299.2C381.739 2299.3599999999997 382.1809999999999 2299.5899999999997 382.52699999999993 2299.8599999999997C382.87699999999995 2300.1299999999997 383.1359999999999 2300.43 383.2989999999999 2300.7299999999996C383.46399999999994 2301.0399999999995 383.54799999999994 2301.3499999999995 383.54799999999994 2301.6499999999996C383.54799999999994 2301.93 383.43799999999993 2302.1899999999996 383.2219999999999 2302.4199999999996C383.00499999999994 2302.6499999999996 382.7299999999999 2302.7599999999998 382.4069999999999 2302.7599999999998C382.1119999999999 2302.7599999999998 381.88199999999995 2302.6899999999996 381.7219999999999 2302.5499999999997C381.5739999999999 2302.41 381.4199999999999 2302.2099999999996 381.2489999999999 2301.91C381.05099999999993 2301.5299999999997 380.8109999999999 2301.23 380.5359999999999 2301.02C380.2689999999999 2300.82 379.82299999999987 2300.71 379.20999999999987 2300.71C378.64099999999985 2300.71 378.1779999999999 2300.83 377.8339999999999 2301.06C377.5029999999999 2301.2799999999997 377.34199999999987 2301.5299999999997 377.34199999999987 2301.82C377.34199999999987 2302.01 377.3939999999999 2302.1600000000003 377.4999999999999 2302.29C377.6129999999999 2302.43 377.7719999999999 2302.55 377.9739999999999 2302.65C378.1819999999999 2302.76 378.3969999999999 2302.84 378.6129999999999 2302.9C378.8339999999999 2302.96 379.2039999999999 2303.05 379.7119999999999 2303.17C380.2469999999999 2303.29 380.7449999999999 2303.41 381.1989999999999 2303.55C381.2899999999999 2303.5800000000004 381.3799999999999 2303.61 381.46699999999987 2303.63C381.99599999999987 2303.8 382.45299999999986 2304.01 382.82599999999985 2304.26C383.20599999999985 2304.51 383.50699999999983 2304.8300000000004 383.72099999999983 2305.21C383.93499999999983 2305.6 384.0439999999998 2306.07 384.0439999999998 2306.62C384.0439999999998 2307.2799999999997 383.8569999999998 2307.88 383.48799999999983 2308.41ZM500.82 2304.43C500.704 2304.5499999999997 500.541 2304.6099999999997 500.337 2304.6099999999997H500.317C499.665 2304.5999999999995 499.65500000000003 2303.99 499.65000000000003 2303.6899999999996C499.64900000000006 2303.6099999999997 499.648 2303.5299999999997 499.64000000000004 2303.47C499.16800000000006 2299.7099999999996 497.46400000000006 2297.9399999999996 493.76000000000005 2297.3599999999997C493.70700000000005 2297.3599999999997 493.64400000000006 2297.3499999999995 493.57700000000006 2297.3499999999995C493.30100000000004 2297.3299999999995 492.7250000000001 2297.2799999999993 492.75900000000007 2296.6799999999994C492.77400000000006 2296.419999999999 492.88900000000007 2295.9899999999993 493.49700000000007 2295.9899999999993C493.5660000000001 2295.9899999999993 493.63400000000007 2295.9899999999993 493.6940000000001 2295.9999999999995C493.7440000000001 2295.9999999999995 493.7900000000001 2295.9999999999995 493.8280000000001 2295.9999999999995C493.8520000000001 2295.9999999999995 493.8660000000001 2295.9999999999995 493.8740000000001 2295.9999999999995C493.88900000000007 2295.9999999999995 493.90400000000005 2295.9999999999995 493.9200000000001 2295.9999999999995C497.73500000000007 2296.1299999999997 501.0400000000001 2299.6199999999994 500.99300000000005 2303.4699999999993C500.9920000000001 2303.5199999999995 500.994 2303.5799999999995 500.99700000000007 2303.6399999999994C501.00900000000007 2303.8999999999996 501.0230000000001 2304.2099999999996 500.82000000000005 2304.4299999999994ZM494.133 2300.4C494.704 2300.39 495.33099999999996 2300.69 495.851 2301.2200000000003C496.37 2301.7500000000005 496.675 2302.42 496.668 2303.01C496.686 2303.57 496.483 2303.88 496.063 2303.9300000000003C496.037 2303.9300000000003 496.01 2303.9400000000005 495.985 2303.9400000000005C495.636 2303.9400000000005 495.36400000000003 2303.6500000000005 495.324 2303.2400000000007C495.237 2302.370000000001 494.80400000000003 2301.9000000000005 493.961 2301.770000000001C493.728 2301.730000000001 493.473 2301.6600000000008 493.339 2301.4300000000007C493.248 2301.2800000000007 493.239 2301.0900000000006 493.313 2300.8800000000006C493.46999999999997 2300.4200000000005 493.918 2300.4100000000008 494.133 2300.4000000000005ZM493.035 2298.74C493.071 2298.52 493.209 2298.16 493.723 2298.16C493.853 2298.16 493.981 2298.18 494.106 2298.2C494.163 2298.21 494.218 2298.22 494.268 2298.23C496.77799999999996 2298.53 498.80499999999995 2300.73 498.784 2303.13C498.784 2303.1400000000003 498.784 2303.15 498.782 2303.1600000000003C498.776 2303.2000000000003 498.77799999999996 2303.2700000000004 498.781 2303.34C498.789 2303.58 498.807 2304.1000000000004 498.25 2304.1800000000003C498.194 2304.1900000000005 498.141 2304.2000000000003 498.091 2304.2000000000003C497.493 2304.2000000000003 497.459 2303.63 497.443 2303.3700000000003C497.438 2303.2900000000004 497.43399999999997 2303.2300000000005 497.425 2303.1700000000005C497.05400000000003 2300.9200000000005 496.29400000000004 2300.1200000000003 494.039 2299.6100000000006C493.983 2299.6000000000004 493.916 2299.5900000000006 493.846 2299.5800000000004C493.605 2299.5400000000004 493.305 2299.5000000000005 493.134 2299.2700000000004C493.033 2299.1300000000006 493 2298.9500000000003 493.035 2298.7400000000002ZM489.717 2304.2C489.377 2303.43 489.48699999999997 2302.93 490.085 2302.52C490.424 2302.29 491.056 2301.86 491.01099999999997 2301.03C490.96099999999996 2300.09 488.90299999999996 2297.26 488.03599999999994 2296.94C487.6689999999999 2296.8 487.28299999999996 2296.8 486.88699999999994 2296.94C485.89099999999996 2297.27 485.17499999999995 2297.87 484.81899999999996 2298.65C484.47399999999993 2299.4100000000003 484.48999999999995 2300.3 484.864 2301.2200000000003C485.945 2303.9 487.46599999999995 2306.2300000000005 489.383 2308.1600000000003C491.26 2310.0400000000004 493.567 2311.59 496.24 2312.7500000000005C496.481 2312.8500000000004 496.733 2312.9100000000003 496.918 2312.9500000000003C496.981 2312.9700000000003 497.035 2312.9800000000005 497.075 2312.9900000000002C497.096 2312.9900000000002 497.11899999999997 2313.0000000000005 497.14099999999996 2313.0000000000005H497.162C498.419 2313.0000000000005 499.929 2311.8400000000006 500.392 2310.5200000000004C500.799 2309.3600000000006 500.057 2308.7900000000004 499.461 2308.3300000000004C499.382 2308.2700000000004 499.301 2308.2100000000005 499.225 2308.1500000000005C498.82000000000005 2307.8200000000006 498.39000000000004 2307.5200000000004 497.97400000000005 2307.2300000000005C497.88700000000006 2307.1600000000003 497.80100000000004 2307.1000000000004 497.71500000000003 2307.0400000000004C497.182 2306.6700000000005 496.70300000000003 2306.4800000000005 496.25000000000006 2306.4800000000005C495.64000000000004 2306.4800000000005 495.10900000000004 2306.8200000000006 494.6700000000001 2307.4900000000007C494.4750000000001 2307.790000000001 494.2390000000001 2307.9300000000007 493.94900000000007 2307.9300000000007C493.77700000000004 2307.9300000000007 493.58200000000005 2307.8800000000006 493.36800000000005 2307.790000000001C491.648 2307.000000000001 490.41900000000004 2305.790000000001 489.71700000000004 2304.2000000000007ZM409.002 2304.14L412.89300000000003 2305.6099999999997L414.399 2310.4799999999996C414.495 2310.7899999999995 414.874 2310.9099999999994 415.126 2310.6999999999994L417.29499999999996 2308.919999999999C417.52299999999997 2308.7399999999993 417.84599999999995 2308.729999999999 418.08399999999995 2308.899999999999L421.9959999999999 2311.7599999999993C422.26499999999993 2311.959999999999 422.64699999999993 2311.8099999999995 422.7149999999999 2311.479999999999L425.5799999999999 2297.599999999999C425.65399999999994 2297.249999999999 425.30499999999995 2296.949999999999 424.96599999999995 2297.079999999999L408.99699999999996 2303.279999999999C408.60299999999995 2303.429999999999 408.60599999999994 2303.989999999999 409.00199999999995 2304.139999999999ZM414.156 2304.83L421.761 2300.11C421.89700000000005 2300.03 422.038 2300.21 421.92100000000005 2300.32L415.64500000000004 2306.2000000000003C415.42400000000004 2306.4 415.28200000000004 2306.6800000000003 415.24100000000004 2306.9800000000005L415.028 2308.5800000000004C414.999 2308.7900000000004 414.702 2308.8100000000004 414.644 2308.6000000000004L413.822 2305.6900000000005C413.727 2305.3600000000006 413.865 2305.0100000000007 414.156 2304.8300000000004Z " fill="#f3f6f7" fill-opacity="1" transform="matrix(1,0,0,1,-371,-2295)"></path></svg>