<svg id="SvgjsSvg1008" xmlns="http://www.w3.org/2000/svg" version="1.1" xmlns:xlink="http://www.w3.org/1999/xlink" xmlns:svgjs="http://svgjs.com/svgjs" width="20" height="16" viewBox="0 0 20 16"><title>Shape 1 copy 5</title><desc>Created with Avocode.</desc><defs id="SvgjsDefs1009"></defs><path id="SvgjsPath1010" d="M150.907 2300.66C150.157 2301.0899999999997 149.32600000000002 2301.3999999999996 148.442 2301.5699999999997C147.735 2300.8399999999997 146.727 2300.3799999999997 145.61100000000002 2300.3799999999997C143.46800000000002 2300.3799999999997 141.73200000000003 2302.0699999999997 141.73200000000003 2304.1499999999996C141.73200000000003 2304.45 141.76600000000002 2304.7299999999996 141.83200000000002 2305.0099999999998C138.60800000000003 2304.85 135.75000000000003 2303.35 133.83700000000002 2301.0699999999997C133.50300000000001 2301.6299999999997 133.312 2302.2699999999995 133.312 2302.97C133.312 2304.27 133.99800000000002 2305.43 135.037 2306.1C134.401 2306.08 133.804 2305.91 133.28 2305.63V2305.6800000000003C133.28 2307.5000000000005 134.618 2309.0200000000004 136.392 2309.3700000000003C136.067 2309.4600000000005 135.724 2309.5000000000005 135.37 2309.5000000000005C135.119 2309.5000000000005 134.877 2309.4800000000005 134.639 2309.4400000000005C135.133 2310.9300000000003 136.565 2312.0200000000004 138.262 2312.0500000000006C136.935 2313.060000000001 135.262 2313.6700000000005 133.445 2313.6700000000005C133.132 2313.6700000000005 132.82299999999998 2313.6500000000005 132.519 2313.6100000000006C134.237 2314.6800000000007 136.274 2315.3100000000004 138.466 2315.3100000000004C145.601 2315.3100000000004 149.50300000000001 2309.5700000000006 149.50300000000001 2304.5800000000004L149.49 2304.1000000000004C150.25 2303.57 150.90900000000002 2302.9000000000005 151.429 2302.1500000000005C150.733 2302.4500000000007 149.986 2302.6500000000005 149.201 2302.7400000000007C150.00199999999998 2302.2800000000007 150.61599999999999 2301.540000000001 150.90699999999998 2300.6600000000008Z " fill="#61aadf" fill-opacity="1" transform="matrix(1,0,0,1,-132,-2300)"></path></svg>