<?xml version="1.0" encoding="UTF-8" standalone="no"?>
<svg
   xmlns:dc="http://purl.org/dc/elements/1.1/"
   xmlns:cc="http://creativecommons.org/ns#"
   xmlns:rdf="http://www.w3.org/1999/02/22-rdf-syntax-ns#"
   xmlns:svg="http://www.w3.org/2000/svg"
   xmlns="http://www.w3.org/2000/svg"
   xmlns:sodipodi="http://sodipodi.sourceforge.net/DTD/sodipodi-0.dtd"
   xmlns:inkscape="http://www.inkscape.org/namespaces/inkscape"
   id="SvgjsSvg1014"
   version="1.1"
   width="17"
   height="18"
   viewBox="0 0 17 18"
   inkscape:version="0.91 r13725"
   sodipodi:docname="icon_watsapp.svg">
  <metadata
     id="metadata11">
    <rdf:RDF>
      <cc:Work
         rdf:about="">
        <dc:format>image/svg+xml</dc:format>
        <dc:type
           rdf:resource="http://purl.org/dc/dcmitype/StillImage" />
        <dc:title>мессенджеры-иконки</dc:title>
      </cc:Work>
    </rdf:RDF>
  </metadata>
  <sodipodi:namedview
     pagecolor="#ffffff"
     bordercolor="#666666"
     borderopacity="1"
     objecttolerance="10"
     gridtolerance="10"
     guidetolerance="10"
     inkscape:pageopacity="0"
     inkscape:pageshadow="2"
     inkscape:window-width="1920"
     inkscape:window-height="1056"
     id="namedview9"
     showgrid="false"
     inkscape:zoom="9.8015267"
     inkscape:cx="65.143163"
     inkscape:cy="9.4764782"
     inkscape:window-x="0"
     inkscape:window-y="24"
     inkscape:window-maximized="1"
     inkscape:current-layer="SvgjsSvg1014" />
  <title
     id="title3">мессенджеры-иконки</title>
  <desc
     id="desc5">Created with Avocode.</desc>
  <defs
     id="SvgjsDefs1015" />
  <path
     id="SvgjsPath1016"
     d="m 8.7125824,17.57 c -1.372,0 -2.727,-0.34 -3.926,-0.99 l -4.38299998,1.41 c -0.021,0 -0.044,0.01 -0.066,0.01 -0.058,0 -0.115,-0.03 -0.156,-0.07 -0.058,-0.06 -0.078,-0.15 -0.052,-0.22 L 1.5545824,13.47 C 0.81058242,12.21 0.41758242,10.76 0.41758242,9.28 c 0,-4.57 3.72099998,-8.29 8.29499998,-8.29 4.5729996,0 8.2939996,3.72 8.2939996,8.29 0,4.57 -3.721,8.29 -8.2939996,8.29 z m 0,-14.85 c -3.623,0 -6.571,2.94 -6.571,6.56 0,1.39 0.433,2.72 1.251,3.85 0.042,0.06 0.054,0.13 0.031,0.2 l -0.709,2.11 2.196,-0.71 c 0.021,0 0.044,-0.01 0.066,-0.01 0.042,0 0.084,0.01 0.12,0.04 1.075,0.71 2.325,1.08 3.616,1.08 3.6219996,0 6.5689996,-2.94 6.5689996,-6.56 0,-3.62 -2.947,-6.56 -6.5689996,-6.56 z m 4.1679996,9.43 c 0.162,-0.45 0.205,-0.95 0.097,-1.13 -0.074,-0.12 -0.202,-0.18 -0.363,-0.26 -0.033,-0.01 -1.264,-0.62 -1.483,-0.7 -0.089,-0.04 -0.185,-0.07 -0.286,-0.07 -0.167,0 -0.306,0.09 -0.415,0.25 -0.123,0.18 -0.4959996,0.62 -0.6109996,0.75 -0.015,0.02 -0.035,0.04 -0.047,0.04 -0.011,0 -0.202,-0.08 -0.26,-0.1 -1.32,-0.58 -2.323,-1.97 -2.46,-2.2 -0.02,-0.04 -0.021,-0.05 -0.021,-0.05 0.005,-0.02 0.049,-0.07 0.072,-0.09 0.067,-0.07 0.14,-0.15 0.21,-0.24 0.034,-0.04 0.067,-0.08 0.1,-0.12 0.102,-0.12 0.147,-0.21 0.2,-0.32 l 0.027,-0.05 c 0.129,-0.26 0.019,-0.48 -0.016,-0.55 -0.03,-0.06 -0.549,-1.32 -0.605,-1.45 -0.133,-0.32 -0.308,-0.47 -0.552,-0.47 l -0.095,0 c -0.116,0.01 -0.746,0.09 -1.024,0.27 -0.295,0.18 -0.795,0.78 -0.795,1.83 0,0.95 0.596,1.84 0.852,2.18 0.006,0.01 0.018,0.03 0.035,0.05 0.98,1.44 2.202,2.51 3.44,3.01 1.1929996,0.48 1.7569996,0.54 2.0779996,0.54 0.135,0 0.243,-0.02 0.338,-0.02 l 0.061,-0.01 c 0.412,-0.04 1.317,-0.51 1.523,-1.09 z"
     inkscape:connector-curvature="0"
     style="fill:#f3f6f7;fill-opacity:1"
     sodipodi:nodetypes="sccscccssssssccccscsssccccsccsccccccccscsccscccsccc" />
</svg>
