<svg id="SvgjsSvg1010" xmlns="http://www.w3.org/2000/svg" version="1.1" xmlns:xlink="http://www.w3.org/1999/xlink" xmlns:svgjs="http://svgjs.com/svgjs" width="19" height="19" viewBox="0 0 19 19"><title>i</title><desc>Created with Avocode.</desc><defs id="SvgjsDefs1011"></defs><path id="SvgjsPath1012" d="M1155.01 135.008C1150.04 135.008 1146.01 139.03900000000002 1146.01 144.00900000000001C1146.01 148.979 1150.04 153.01000000000002 1155.01 153.01000000000002C1159.98 153.01000000000002 1164.01 148.979 1164.01 144.00900000000001C1164.01 139.03900000000002 1159.98 135.008 1155.01 135.008ZM1156.88 148.958C1156.42 149.14 1156.0500000000002 149.279 1155.7700000000002 149.375C1155.5000000000002 149.471 1155.1800000000003 149.52 1154.8100000000002 149.52C1154.2500000000002 149.52 1153.8200000000002 149.381 1153.5000000000002 149.109C1153.1900000000003 148.835 1153.0400000000002 148.488 1153.0400000000002 148.067C1153.0400000000002 147.904 1153.0500000000002 147.735 1153.0700000000002 147.565C1153.1000000000001 147.394 1153.13 147.203 1153.19 146.987L1153.77 144.939C1153.82 144.74099999999999 1153.86 144.554 1153.9 144.38C1153.93 144.20499999999998 1153.95 144.045 1153.95 143.898C1153.95 143.638 1153.89 143.45499999999998 1153.79 143.352C1153.68 143.249 1153.47 143.199 1153.17 143.199C1153.02 143.199 1152.8600000000001 143.221 1152.71 143.26700000000002C1152.55 143.31500000000003 1152.41 143.35900000000004 1152.3 143.40200000000002L1152.46 142.77C1152.83 142.616 1153.2 142.483 1153.55 142.37400000000002C1153.8899999999999 142.26200000000003 1154.22 142.20700000000002 1154.53 142.20700000000002C1155.08 142.20700000000002 1155.51 142.34300000000002 1155.82 142.61100000000002C1156.12 142.88000000000002 1156.27 143.23000000000002 1156.27 143.66000000000003C1156.27 143.74900000000002 1156.26 143.90600000000003 1156.24 144.13000000000002C1156.22 144.35500000000002 1156.18 144.55900000000003 1156.1200000000001 144.74800000000002L1155.5500000000002 146.79000000000002C1155.5000000000002 146.955 1155.4600000000003 147.14100000000002 1155.42 147.35100000000003C1155.38 147.56000000000003 1155.3600000000001 147.72100000000003 1155.3600000000001 147.82900000000004C1155.3600000000001 148.09900000000005 1155.42 148.28500000000003 1155.5500000000002 148.38400000000004C1155.67 148.48200000000006 1155.88 148.53200000000004 1156.17 148.53200000000004C1156.3200000000002 148.53200000000004 1156.47 148.50600000000003 1156.65 148.45600000000005C1156.8300000000002 148.40800000000004 1156.96 148.36400000000003 1157.0400000000002 148.32700000000006ZM1156.78 140.669C1156.51 140.919 1156.19 141.044 1155.81 141.044C1155.4299999999998 141.044 1155.11 140.919 1154.83 140.669C1154.56 140.419 1154.4299999999998 140.115 1154.4299999999998 139.76000000000002C1154.4299999999998 139.40500000000003 1154.57 139.10100000000003 1154.83 138.84900000000002C1155.11 138.59600000000003 1155.4299999999998 138.47000000000003 1155.81 138.47000000000003C1156.19 138.47000000000003 1156.51 138.59600000000003 1156.78 138.84900000000002C1157.05 139.10100000000003 1157.19 139.40500000000003 1157.19 139.76000000000002C1157.19 140.116 1157.05 140.419 1156.78 140.669Z " fill="#c6cacc" fill-opacity="1" transform="matrix(1,0,0,1,-1146,-135)"></path></svg>