<svg id="SvgjsSvg1013" xmlns="http://www.w3.org/2000/svg" version="1.1" xmlns:xlink="http://www.w3.org/1999/xlink" xmlns:svgjs="http://svgjs.com/svgjs" width="14" height="15" viewBox="0 0 14 15"><title>выйти</title><desc>Created with Avocode.</desc><defs id="SvgjsDefs1014"><clipPath id="SvgjsClipPath1017"><path id="SvgjsPath1016" d="M1174.65 107.354L1175.3500000000001 106.646L1177.5000000000002 108.796L1177.6500000000003 108.646L1178.3500000000004 109.353L1178.2035000000003 109.4995L1178.3500000000004 109.646L1177.6500000000003 110.353L1177.4999700000003 110.20303L1175.3500000000004 112.353L1174.6500000000003 111.646L1176.2960000000003 110H1170.0000000000002V109H1176.2965500000003ZM1175 105H1174V103H1166V116H1174V114H1175V117H1165V102H1175Z " fill="#ffffff"></path></clipPath></defs><path id="SvgjsPath1015" d="M1174.65 107.354L1175.3500000000001 106.646L1177.5000000000002 108.796L1177.6500000000003 108.646L1178.3500000000004 109.353L1178.2035000000003 109.4995L1178.3500000000004 109.646L1177.6500000000003 110.353L1177.4999700000003 110.20303L1175.3500000000004 112.353L1174.6500000000003 111.646L1176.2960000000003 110H1170.0000000000002V109H1176.2965500000003ZM1175 105H1174V103H1166V116H1174V114H1175V117H1165V102H1175Z " fill-opacity="0" fill="#ffffff" stroke-dasharray="0" stroke-linejoin="miter" stroke-linecap="butt" stroke-opacity="1" stroke="#000000" stroke-miterlimit="50" stroke-width="2" clip-path="url(&quot;#SvgjsClipPath1017&quot;)" transform="matrix(1,0,0,1,-1165,-102)"></path></svg>