<svg id="SvgjsSvg1000" xmlns="http://www.w3.org/2000/svg" version="1.1" xmlns:xlink="http://www.w3.org/1999/xlink" xmlns:svgjs="http://svgjs.com/svgjs" width="38" height="21" viewBox="0 0 38 21"><title>пирог</title><desc>Created with Avocode.</desc><defs id="SvgjsDefs1001"><clipPath id="SvgjsClipPath1009"><path id="SvgjsPath1008" d="M90 42.9998V40.9998H117V42.9998ZM90 56.9997V54.9997H109V56.9997ZM90 49.9997V47.999599999999994H109V49.9997ZM119.5 46.9999C122.538 46.9999 125 49.462399999999995 125 52.4999C125 53.657419999999995 124.64249 54.73141 124.03184 55.61745L126.70700000000001 58.292699999999996C126.70700000000001 58.292699999999996 127.31400000000001 59.6862 127.00000000000001 59.99979999999999C126.61400000000002 60.3856 125.29300000000002 59.706999999999994 125.29300000000002 59.706999999999994L122.61773000000002 57.031639999999996C121.73170000000002 57.64234 120.65767000000002 57.9999 119.50000000000003 57.9999C116.46200000000003 57.9999 114.00000000000003 55.537499999999994 114.00000000000003 52.4999C114.00000000000003 49.462399999999995 116.46200000000003 46.9999 119.50000000000003 46.9999Z " fill="#ffffff"></path></clipPath></defs><path id="SvgjsPath1007" d="M90 42.9998V40.9998H117V42.9998ZM90 56.9997V54.9997H109V56.9997ZM90 49.9997V47.999599999999994H109V49.9997ZM119.5 46.9999C122.538 46.9999 125 49.462399999999995 125 52.4999C125 53.657419999999995 124.64249 54.73141 124.03184 55.61745L126.70700000000001 58.292699999999996C126.70700000000001 58.292699999999996 127.31400000000001 59.6862 127.00000000000001 59.99979999999999C126.61400000000002 60.3856 125.29300000000002 59.706999999999994 125.29300000000002 59.706999999999994L122.61773000000002 57.031639999999996C121.73170000000002 57.64234 120.65767000000002 57.9999 119.50000000000003 57.9999C116.46200000000003 57.9999 114.00000000000003 55.537499999999994 114.00000000000003 52.4999C114.00000000000003 49.462399999999995 116.46200000000003 46.9999 119.50000000000003 46.9999Z " fill-opacity="0" fill="#ffffff" stroke-dasharray="0" stroke-linejoin="miter" stroke-linecap="butt" stroke-opacity="1" stroke="#818181" stroke-miterlimit="50" stroke-width="4" clip-path="url(&quot;#SvgjsClipPath1009&quot;)" transform="matrix(1,0,0,1,-90,-40)"></path></svg>