<?xml version="1.0" encoding="UTF-8" standalone="no"?>
<svg
   xmlns:dc="http://purl.org/dc/elements/1.1/"
   xmlns:cc="http://creativecommons.org/ns#"
   xmlns:rdf="http://www.w3.org/1999/02/22-rdf-syntax-ns#"
   xmlns:svg="http://www.w3.org/2000/svg"
   xmlns="http://www.w3.org/2000/svg"
   xmlns:sodipodi="http://sodipodi.sourceforge.net/DTD/sodipodi-0.dtd"
   xmlns:inkscape="http://www.inkscape.org/namespaces/inkscape"
   id="SvgjsSvg1011"
   version="1.1"
   width="47"
   height="35"
   viewBox="0 0 47 35"
   inkscape:version="0.48.4 r9939"
   sodipodi:docname="money.svg">
  <metadata
     id="metadata11">
    <rdf:RDF>
      <cc:Work
         rdf:about="">
        <dc:format>image/svg+xml</dc:format>
        <dc:type
           rdf:resource="http://purl.org/dc/dcmitype/StillImage" />
      </cc:Work>
    </rdf:RDF>
  </metadata>
  <sodipodi:namedview
     pagecolor="#ffffff"
     bordercolor="#666666"
     borderopacity="1"
     objecttolerance="10"
     gridtolerance="10"
     guidetolerance="10"
     inkscape:pageopacity="0"
     inkscape:pageshadow="2"
     inkscape:window-width="1920"
     inkscape:window-height="1056"
     id="namedview9"
     showgrid="false"
     inkscape:zoom="2.1350906"
     inkscape:cx="375.80333"
     inkscape:cy="-6.6831598"
     inkscape:window-x="0"
     inkscape:window-y="24"
     inkscape:window-maximized="1"
     inkscape:current-layer="SvgjsSvg1011" />
  <title
     id="title3">Forma 1</title>
  <desc
     id="desc5">Created with Avocode.</desc>
  <defs
     id="SvgjsDefs1012" />
  <path
     id="SvgjsPath1013"
     d="m 42.3,23.46 0,5.2 c 0,0.25 -0.054,0.49 -0.153,0.72 -0.453,0.67 -0.643,0.96 -1.097,1.27 -0.069,0.05 -0.156,0.1 -0.231,0.15 -0.081,0.05 -0.164,0.11 -0.251,0.16 -0.071,0.04 -0.142,0.08 -0.217,0.12 -1.374,0.78 -3.376,1.4 -5.689,1.89 -0.055,0.01 -0.11,0.02 -0.165,0.03 -0.246,0.05 -0.494,0.1 -0.746,0.15 -1.225,0.23 -2.544,0.43 -3.935,0.59 -0.017,0.01 -0.031,0.01 -0.049,0.01 -0.004,0 -0.008,0 -0.013,0 -1.249,0.15 -2.55,0.26 -3.893,0.35 -0.004,0 -0.006,0 -0.01,0 -0.003,0 -0.004,0 -0.007,0 -1.102,0.06 -2.23,0.11 -3.373,0.13 -0.448,0 -0.889,0.01 -1.321,0.01 -0.325,0 -0.657,0 -0.99,-0.01 -1.254,-0.01 -2.494,-0.06 -3.708,-0.13 -0.001,0 -0.001,0 -0.002,0 -0.002,0 -0.002,0 -0.004,0 C 12.514,33.86 8.873,33.33 6.02,32.59 5.891,32.56 5.763,32.52 5.638,32.49 5.552,32.47 5.468,32.44 5.384,32.42 5.162,32.36 4.946,32.29 4.734,32.23 4.709,32.22 4.684,32.21 4.659,32.2 3.252,31.75 3.109,31.66 2.466,31.36 0.937,30.61 0.002,29.72 0,28.67 l 0,-5.58 0.008,0 C 0.084,21.75 1.621,20.7 4.7,19.9 l 0,-5.57 0.012,0 C 4.72,14.2 4.743,14.06 4.782,13.93 1.925,13.05 0.004,11.86 0,10.35 l 0,-5.57 0.013,0 C 0.294,0.14 19.001,0 21.15,0 23.299,0 42.006,0.14 42.287,4.78 l 0.013,0 0,5.57 c -10e-4,0.26 -0.061,0.5 -0.168,0.74 3.188,0.82 4.782,1.88 4.859,3.24 l 0.009,0 0,5.57 c -0.004,1.5 -1.888,2.68 -4.7,3.56 z m -1.125,-1.33 c 0.116,-0.03 0.23,-0.06 0.342,-0.09 l 0,-3.85 c -0.731,0.2 -1.518,0.38 -2.35,0.55 l 0,3.88 c 0.062,-0.01 0.126,-0.02 0.186,-0.03 0.204,-0.05 0.403,-0.1 0.598,-0.14 0.421,-0.1 0.834,-0.21 1.224,-0.32 z m -2.792,8.13 c 0.902,-0.36 1.587,-0.73 1.999,-1.1 l 0.267,-0.24 c 0.055,-0.09 0.084,-0.18 0.084,-0.26 l 0,-3.29 c -0.626,0.4 -1.418,0.76 -2.35,1.09 z m -3.916,1.12 c 0.866,-0.18 1.652,-0.38 2.35,-0.59 l 0,-3.84 c -0.732,0.2 -1.519,0.38 -2.35,0.55 z m -3.917,0.68 c 0.828,-0.11 1.612,-0.24 2.35,-0.37 l 0,-3.91 c -0.758,0.13 -1.542,0.24 -2.35,0.34 z m -3.917,0.39 c 0.176,-0.01 0.35,-0.02 0.522,-0.03 0.114,-0.01 0.227,-0.02 0.341,-0.03 0.508,-0.05 1.003,-0.09 1.487,-0.15 l 0,-3.95 c -0.771,0.08 -1.555,0.14 -2.35,0.19 z m -4.699,0.19 c 0.284,0 0.57,-0.01 0.85,-0.01 0.115,0 0.23,0 0.345,-0.01 0.485,-0.01 0.961,-0.03 1.432,-0.05 0.17,0 0.339,-0.01 0.506,-0.02 l 0,-3.98 c -0.785,0.04 -1.573,0.06 -2.362,0.08 -0.042,0 -0.083,0 -0.125,0 -0.215,0.01 -0.431,0.01 -0.646,0.01 z m -4.7,-0.09 c 0.421,0.02 0.844,0.04 1.271,0.05 0.044,0 0.088,0.01 0.132,0.01 0.355,0.01 0.712,0.02 1.071,0.02 0.068,0 0.135,0.01 0.203,0.01 0.152,0 0.304,0 0.456,0 l 0,-3.98 c -0.216,0 -0.431,0 -0.647,-0.01 -0.04,0 -0.082,0 -0.123,0 -0.789,-0.01 -1.578,-0.04 -2.363,-0.08 z m -3.917,-0.31 c 0.056,0.01 0.112,0.02 0.168,0.02 0.079,0.01 0.158,0.02 0.238,0.03 0.635,0.06 1.286,0.11 1.944,0.16 l 0,-3.97 c -0.795,-0.05 -1.58,-0.11 -2.35,-0.19 z M 9.4,31.69 c 0.738,0.13 1.522,0.26 2.35,0.37 l 0,-3.94 C 10.942,28.02 10.158,27.91 9.4,27.78 z M 5.483,30.8 c 0.026,0 0.05,0.01 0.076,0.02 0.093,0.03 0.192,0.05 0.288,0.08 0.604,0.17 1.267,0.33 1.986,0.49 l 0,-3.89 C 7.001,27.33 6.215,27.15 5.483,26.95 z M 1.567,28.66 c 0.001,0.4 0.663,0.91 1.893,1.43 l 0.009,-0.01 0.448,0.18 0,-3.8 C 2.985,26.13 2.192,25.77 1.567,25.37 z m 0.008,-5.52 c 0.07,0.54 1.275,1.26 3.43,1.94 2.77,0.87 7.108,1.67 12.603,1.91 0.281,0.01 0.561,0.03 0.849,0.04 0.235,0 0.47,0.01 0.708,0.02 0.649,0.01 1.307,0.02 1.985,0.02 0.509,0 1.005,0 1.498,-0.01 0.195,-0.01 0.39,-0.01 0.582,-0.01 0.178,-0.01 0.352,-0.01 0.528,-0.02 5.939,-0.19 10.611,-1.03 13.537,-1.95 0.97,-0.31 1.749,-0.62 2.317,-0.92 -2.626,0.58 -5.732,0.98 -9.042,1.18 -0.008,0 -0.013,0 -0.02,0 -0.004,0 -0.007,0 -0.011,0 -0.996,0.06 -2.005,0.1 -3.03,0.12 -0.564,0.01 -1.119,0.02 -1.659,0.02 -0.472,0 -0.954,-0.01 -1.445,-0.02 -1.107,-0.02 -2.192,-0.06 -3.253,-0.12 0,0 -0.001,0 -0.003,0 -0.001,0 -0.003,0 -0.005,0 -3.302,-0.2 -6.333,-0.6 -8.872,-1.15 C 12.064,24.15 11.858,24.11 11.655,24.06 11.591,24.04 11.524,24.03 11.46,24.01 8.696,23.37 6.475,22.51 5.403,21.4 5.391,21.39 5.373,21.38 5.361,21.37 2.454,22.09 1.662,22.84 1.575,23.14 z m 36.026,-0.21 0,-3.91 c -0.759,0.13 -1.543,0.24 -2.35,0.34 l 0,3.93 c 0.201,-0.02 0.407,-0.05 0.605,-0.08 0.21,-0.03 0.419,-0.06 0.624,-0.09 0.356,-0.05 0.703,-0.11 1.047,-0.17 0.024,-0.01 0.049,-0.01 0.074,-0.02 z m -3.918,0.55 0,-3.95 c -0.771,0.08 -1.555,0.14 -2.35,0.19 l 0,3.97 c 0.296,-0.02 0.598,-0.04 0.89,-0.06 0.028,-0.01 0.055,-0.01 0.083,-0.01 0.468,-0.04 0.922,-0.09 1.377,-0.14 z m -3.916,0.31 0,-3.98 c -0.785,0.04 -1.574,0.07 -2.363,0.08 -0.041,0 -0.083,0 -0.124,0 -0.216,0.01 -0.431,0.01 -0.647,0.01 l 0,3.98 c 1.058,-0.01 2.104,-0.04 3.134,-0.09 z m -4.701,0.09 0,-3.98 c -0.216,0 -0.431,0 -0.646,-0.01 -0.041,0 -0.083,0 -0.124,0 -0.789,-0.01 -1.578,-0.04 -2.363,-0.08 l 0,3.98 c 0.03,0 0.061,0 0.091,0 0.566,0.03 1.141,0.06 1.731,0.07 0.057,0 0.115,0 0.173,0 0.372,0.01 0.756,0.01 1.138,0.02 z m -4.699,-0.19 0,-3.97 c -0.795,-0.05 -1.58,-0.11 -2.35,-0.19 l 0,3.96 c 0.021,0 0.041,0 0.062,0 0.102,0.01 0.205,0.02 0.307,0.03 0.478,0.05 0.968,0.1 1.469,0.14 0.105,0 0.212,0.01 0.317,0.02 0.064,0 0.131,0.01 0.195,0.01 z m -3.917,-0.39 0,-3.94 c -0.808,-0.1 -1.592,-0.21 -2.35,-0.34 l 0,3.91 c 0.295,0.05 0.587,0.11 0.897,0.16 0.018,0 0.036,0 0.054,0 0.45,0.08 0.92,0.14 1.399,0.21 z m -3.917,-0.68 0,-3.88 c -0.832,-0.17 -1.618,-0.35 -2.35,-0.55 l 0,3.83 c 0.7,0.21 1.485,0.41 2.35,0.6 z m -3.916,-1.13 0,-3.79 C 7.685,17.37 6.892,17.01 6.267,16.61 l 0,3.29 c 0,0.03 0.008,0.05 0.013,0.08 l 0.052,0.09 C 6.591,20.51 7.385,21 8.617,21.49 z M 6.332,12.72 c 0.388,0.1 0.795,0.2 1.211,0.29 0.094,0.02 0.194,0.04 0.29,0.06 l 0,-3.89 C 7.001,9.02 6.215,8.83 5.483,8.63 l 0,3.85 c 0.271,0.08 0.553,0.16 0.849,0.24 z M 1.567,10.35 c 0.001,0.45 0.826,1.03 2.35,1.61 l 0,-3.81 C 2.985,7.82 2.192,7.45 1.567,7.05 z M 21.15,1.59 C 8.234,1.59 1.701,3.66 1.578,4.85 1.673,5.38 2.875,6.1 5.005,6.76 c 2.77,0.87 7.108,1.67 12.603,1.92 0.281,0.01 0.561,0.02 0.849,0.03 0.235,0.01 0.47,0.02 0.708,0.02 0.649,0.02 1.307,0.03 1.985,0.03 0.678,0 1.336,-0.01 1.985,-0.03 0.239,0 0.474,-0.01 0.708,-0.02 C 24.13,8.7 24.41,8.69 24.691,8.68 30.187,8.43 34.524,7.63 37.295,6.76 39.424,6.1 40.627,5.38 40.722,4.85 40.599,3.66 34.066,1.59 21.15,1.59 z M 9.4,9.47 l 0,3.91 c 0.085,0.01 0.169,0.03 0.256,0.04 0.434,0.08 0.877,0.15 1.329,0.21 0.099,0.02 0.195,0.03 0.295,0.05 0.153,0.02 0.315,0.04 0.47,0.06 l 0,-3.94 C 10.942,9.71 10.158,9.59 9.4,9.47 z m 3.917,0.51 0,3.95 c 0.766,0.08 1.552,0.14 2.35,0.2 l 0,-3.96 c -0.795,-0.05 -1.58,-0.12 -2.35,-0.19 z m 3.916,0.28 0,3.97 c 1.031,0.06 2.079,0.08 3.134,0.09 l 0,-3.97 c -0.216,-0.01 -0.431,-0.01 -0.647,-0.01 -0.041,0 -0.083,0 -0.124,0 -0.789,-0.02 -1.578,-0.04 -2.363,-0.08 z m 4.7,0.09 0,3.97 c 0.283,0 0.568,0 0.847,0 0.085,-0.01 0.169,-0.01 0.254,-0.01 0.543,-0.01 1.078,-0.03 1.604,-0.05 0.012,-0.01 0.023,-0.01 0.034,-0.01 0.134,0 0.261,-0.01 0.395,-0.02 l 0,-3.97 c -0.785,0.04 -1.574,0.06 -2.363,0.08 -0.041,0 -0.083,0 -0.125,0 -0.215,0 -0.43,0 -0.646,0.01 z m 4.7,-0.18 0,3.97 c 0.81,-0.06 1.594,-0.13 2.35,-0.22 l 0,-3.94 c -0.771,0.07 -1.555,0.14 -2.35,0.19 z m 3.917,-0.37 0,3.94 c 0.826,-0.11 1.607,-0.24 2.35,-0.37 l 0,-3.9 C 32.142,9.59 31.358,9.7 30.55,9.8 z m 3.917,-0.62 0,3.88 c 0.857,-0.18 1.648,-0.38 2.35,-0.59 l 0,-3.84 c -0.732,0.2 -1.519,0.39 -2.35,0.55 z m 6.266,-2.13 c -0.626,0.4 -1.418,0.77 -2.35,1.1 l 0,3.78 c 0.815,-0.32 1.45,-0.65 1.864,-0.97 l 0.285,-0.23 0.022,0.01 c 0.117,-0.14 0.179,-0.27 0.179,-0.39 z m 0.171,5.39 c -0.047,0.03 -0.106,0.06 -0.155,0.09 -0.087,0.06 -0.181,0.11 -0.275,0.17 -0.082,0.04 -0.158,0.09 -0.246,0.14 -0.194,0.11 -0.404,0.21 -0.621,0.31 -0.057,0.02 -0.118,0.05 -0.176,0.08 -0.204,0.09 -0.417,0.17 -0.639,0.26 -0.045,0.02 -0.088,0.03 -0.134,0.05 -0.262,0.1 -0.534,0.2 -0.818,0.29 -0.096,0.03 -0.198,0.06 -0.297,0.09 -0.163,0.05 -0.328,0.1 -0.498,0.15 -3.67,1.07 -8.945,1.75 -14.637,1.84 -0.425,0.01 -0.847,0.02 -1.258,0.02 -0.576,0 -1.167,-0.01 -1.77,-0.03 -0.983,-0.02 -1.956,-0.06 -2.915,-0.12 -0.006,0 -0.01,0 -0.015,0 -0.01,0 -0.019,0 -0.029,0 -1.333,-0.08 -2.632,-0.2 -3.884,-0.34 -0.001,0 -0.002,0 -0.004,0 -0.005,0 -0.01,0 -0.016,0 C 10.679,15.22 8.954,14.94 7.398,14.6 7.078,14.53 6.764,14.46 6.458,14.39 6.404,14.37 6.344,14.36 6.291,14.35 6.282,14.37 6.282,14.38 6.278,14.4 c 0.089,0.54 1.292,1.25 3.427,1.92 2.77,0.87 7.108,1.67 12.604,1.91 0.28,0.02 0.56,0.03 0.848,0.04 0.235,0.01 0.47,0.01 0.708,0.02 0.649,0.01 1.307,0.02 1.985,0.02 0.678,0 1.336,-0.01 1.985,-0.02 0.239,-0.01 0.474,-0.01 0.708,-0.02 0.287,-0.01 0.567,-0.02 0.848,-0.04 5.496,-0.24 9.833,-1.04 12.604,-1.91 2.152,-0.68 3.358,-1.39 3.43,-1.94 -0.09,-0.33 -1.014,-1.17 -4.521,-1.94 z m 4.529,4.17 c -0.626,0.4 -1.418,0.76 -2.35,1.09 l 0,3.81 c 1.524,-0.58 2.35,-1.16 2.35,-1.61 z"
     inkscape:connector-curvature="0"
     style="fill:#ff3300;fill-opacity:1"
     sodipodi:nodetypes="cscccccccccsccsccsccscccccccccccccccccscccccccccccccccccccscccccccccccccccccccccscccccccccccsscccccccccccccccccccccccccccccccccccccsccccccsccsccscccccccccccccccccccccccccccccccccccccccccccccccccccccccccccccccscccccccccccccccscccccscccccscccccccccccccccccscccccccscccsccccccccccccccccccccccscccccccccccccsccsccscccccccccscccccccccsc" />
</svg>
