<svg id="SvgjsSvg1000" xmlns="http://www.w3.org/2000/svg" version="1.1" xmlns:xlink="http://www.w3.org/1999/xlink" xmlns:svgjs="http://svgjs.com/svgjs" width="18" height="9" viewBox="0 0 18 9"><title>стрелка вправо</title><desc>Created with Avocode.</desc><defs id="SvgjsDefs1001"></defs><path id="SvgjsPath1007" d="M1152.27 1717.84C1152.37 1717.78 1152.49 1717.75 1152.62 1717.75L1165.31 1717.89L1162.25 1715.68C1161.94 1715.45 1161.86 1715.02 1162.08 1714.72C1162.1399999999999 1714.63 1162.22 1714.57 1162.3 1714.52C1162.52 1714.3899999999999 1162.81 1714.4 1163.04 1714.56L1167.85 1718.03C1167.87 1718.04 1167.8799999999999 1718.06 1167.8899999999999 1718.07C1167.9199999999998 1718.09 1167.9499999999998 1718.12 1167.9699999999998 1718.1499999999999C1167.9799999999998 1718.1599999999999 1167.9999999999998 1718.1699999999998 1168.0099999999998 1718.1899999999998C1168.0199999999998 1718.1999999999998 1168.0199999999998 1718.1999999999998 1168.0199999999998 1718.2099999999998C1168.0399999999997 1718.2299999999998 1168.0499999999997 1718.2599999999998 1168.0599999999997 1718.2799999999997C1168.0799999999997 1718.3099999999997 1168.0899999999997 1718.3499999999997 1168.0999999999997 1718.3799999999997C1168.1099999999997 1718.4099999999996 1168.1199999999997 1718.4299999999996 1168.1299999999997 1718.4599999999996C1168.1299999999997 1718.4899999999996 1168.1299999999997 1718.5099999999995 1168.1299999999997 1718.5399999999995C1168.1299999999997 1718.5599999999995 1168.1399999999996 1718.5699999999995 1168.1399999999996 1718.5899999999995C1168.1399999999996 1718.6099999999994 1168.1299999999997 1718.6299999999994 1168.1299999999997 1718.6499999999994C1168.1299999999997 1718.6699999999994 1168.1299999999997 1718.6999999999994 1168.1299999999997 1718.7199999999993C1168.1199999999997 1718.7499999999993 1168.1099999999997 1718.7699999999993 1168.0999999999997 1718.7999999999993C1168.0899999999997 1718.8399999999992 1168.0799999999997 1718.8699999999992 1168.0599999999997 1718.8999999999992C1168.0499999999997 1718.9299999999992 1168.0399999999997 1718.9499999999991 1168.0199999999998 1718.9699999999991C1168.0199999999998 1718.979999999999 1168.0199999999998 1718.989999999999 1168.0099999999998 1718.989999999999C1167.9999999999998 1719.009999999999 1167.9899999999998 1719.019999999999 1167.9799999999998 1719.029999999999C1167.9499999999998 1719.059999999999 1167.9199999999998 1719.089999999999 1167.8899999999999 1719.109999999999C1167.8799999999999 1719.119999999999 1167.87 1719.139999999999 1167.86 1719.149999999999L1163.08 1722.569999999999C1162.77 1722.799999999999 1162.34 1722.7199999999991 1162.12 1722.409999999999C1161.8999999999999 1722.099999999999 1161.9699999999998 1721.669999999999 1162.27 1721.449999999999L1165.32 1719.2699999999988L1152.62 1719.1299999999987C1152.2399999999998 1719.1199999999988 1151.9399999999998 1718.8099999999988 1151.9299999999998 1718.4299999999987C1151.9299999999998 1718.1799999999987 1152.07 1717.9599999999987 1152.2699999999998 1717.8399999999988Z " fill="#ff3300" fill-opacity="1" transform="matrix(1,0,0,1,-1151,-1714)"></path></svg>