<svg id="SvgjsSvg1017" xmlns="http://www.w3.org/2000/svg" version="1.1" xmlns:xlink="http://www.w3.org/1999/xlink" xmlns:svgjs="http://svgjs.com/svgjs" width="26" height="27" viewBox="0 0 26 27"><title>лупа</title><desc>Created with Avocode.</desc><defs id="SvgjsDefs1018"><clipPath id="SvgjsClipPath1021"><path id="SvgjsPath1020" d="M1067.92 35.9999C1073.95 35.9999 1078.8400000000001 40.87779999999999 1078.8400000000001 46.895199999999996C1078.8400000000001 49.18628999999999 1078.1310700000001 51.312239999999996 1076.9202100000002 53.066649999999996L1082.2300000000002 58.3702C1082.2300000000002 58.3702 1083.4400000000003 61.130799999999994 1082.8100000000002 61.7519C1082.0500000000002 62.5162 1079.42 61.1718 1079.42 61.1718L1074.11228 55.87032C1072.35248 57.08136 1070.2191 57.7905 1067.92 57.7905C1061.89 57.7905 1057 52.912400000000005 1057 46.8952C1057 40.8778 1061.89 35.999900000000004 1067.92 35.999900000000004Z " fill="#ffffff"></path></clipPath></defs><path id="SvgjsPath1019" d="M1067.92 35.9999C1073.95 35.9999 1078.8400000000001 40.87779999999999 1078.8400000000001 46.895199999999996C1078.8400000000001 49.18628999999999 1078.1310700000001 51.312239999999996 1076.9202100000002 53.066649999999996L1082.2300000000002 58.3702C1082.2300000000002 58.3702 1083.4400000000003 61.130799999999994 1082.8100000000002 61.7519C1082.0500000000002 62.5162 1079.42 61.1718 1079.42 61.1718L1074.11228 55.87032C1072.35248 57.08136 1070.2191 57.7905 1067.92 57.7905C1061.89 57.7905 1057 52.912400000000005 1057 46.8952C1057 40.8778 1061.89 35.999900000000004 1067.92 35.999900000000004Z " fill-opacity="0" fill="#ffffff" stroke-dasharray="0" stroke-linejoin="miter" stroke-linecap="butt" stroke-opacity="1" stroke="#818181" stroke-miterlimit="50" stroke-width="4" clip-path="url(&quot;#SvgjsClipPath1021&quot;)" transform="matrix(1,0,0,1,-1057,-35)"></path></svg>