<svg id="SvgjsSvg1008" xmlns="http://www.w3.org/2000/svg" version="1.1" xmlns:xlink="http://www.w3.org/1999/xlink" xmlns:svgjs="http://svgjs.com/svgjs" width="35" height="41" viewBox="0 0 35 41"><title>Forma 1</title><desc>Created with Avocode.</desc><defs id="SvgjsDefs1009"></defs><path id="SvgjsPath1010" d="M882.5 1504H854.5C852.57 1504 851 1505.56 851 1507.47V1542.89C851 1544.0500000000002 851.943 1545 853.101 1545H854.499C855.657 1545 856.6 1544.05 856.6 1542.89V1542.19H880.4V1542.89C880.4 1544.0500000000002 881.343 1545 882.501 1545H883.899C885.057 1545 886 1544.05 886 1542.89V1507.47C886 1505.56 884.43 1504 882.5 1504ZM852.4 1507.47C852.4 1506.33 853.342 1505.41 854.5 1505.41H882.5C883.658 1505.41 884.6 1506.3300000000002 884.6 1507.47V1540.78H852.4ZM855.2 1542.89C855.2 1543.2800000000002 854.885 1543.5900000000001 854.499 1543.5900000000001H853.101C852.715 1543.5900000000001 852.4 1543.2800000000002 852.4 1542.89V1542.19H855.1999999999999ZM883.899 1543.59H882.501C882.114 1543.59 881.8 1543.28 881.8 1542.8899999999999V1542.1899999999998H884.5999999999999V1542.8899999999999C884.5999999999999 1543.28 884.2849999999999 1543.59 883.8989999999999 1543.59ZM881.1 1537.97C881.487 1537.97 881.8000000000001 1537.65 881.8000000000001 1537.27V1508.92C881.8000000000001 1508.53 881.4870000000001 1508.22 881.1 1508.22H855.9C855.513 1508.22 855.1999999999999 1508.53 855.1999999999999 1508.92V1510.45C854.3849999999999 1510.74 853.8 1511.52 853.8 1512.44V1513.8400000000001C853.8 1515.0100000000002 854.742 1515.95 855.9 1515.95C857.058 1515.95 858 1515.01 858 1513.8400000000001V1512.44C858 1511.52 857.415 1510.74 856.6 1510.45V1509.6200000000001H880.4V1516.13C878.804 1516.46 877.6 1517.88 877.6 1519.5800000000002V1526.6100000000001C877.6 1528.3100000000002 878.804 1529.73 880.4 1530.0500000000002V1536.5600000000002H856.6V1535.7400000000002C857.4150000000001 1535.4500000000003 858 1534.6700000000003 858 1533.7500000000002V1532.3400000000001C858 1531.43 857.415 1530.65 856.6 1530.3500000000001V1518.0600000000002C856.6 1517.67 856.2860000000001 1517.3600000000001 855.9 1517.3600000000001C855.513 1517.3600000000001 855.1999999999999 1517.67 855.1999999999999 1518.0600000000002V1530.3500000000001C854.3849999999999 1530.65 853.8 1531.43 853.8 1532.3400000000001V1533.7500000000002C853.8 1534.6700000000003 854.385 1535.4500000000003 855.1999999999999 1535.7400000000002V1537.2700000000002C855.1999999999999 1537.6500000000003 855.5129999999999 1537.9700000000003 855.9 1537.9700000000003ZM856.6 1513.84C856.6 1514.23 856.2860000000001 1514.55 855.9 1514.55C855.514 1514.55 855.1999999999999 1514.23 855.1999999999999 1513.84V1512.4399999999998C855.1999999999999 1512.0499999999997 855.5139999999999 1511.7299999999998 855.9 1511.7299999999998C856.286 1511.7299999999998 856.6 1512.0499999999997 856.6 1512.4399999999998ZM879 1526.61V1519.58C879 1518.6599999999999 879.585 1517.8799999999999 880.4 1517.59V1528.6C879.5849999999999 1528.31 879 1527.53 879 1526.61ZM855.2 1532.34C855.2 1531.9599999999998 855.514 1531.6399999999999 855.9000000000001 1531.6399999999999C856.2860000000001 1531.6399999999999 856.6000000000001 1531.9599999999998 856.6000000000001 1532.34V1533.75C856.6000000000001 1534.14 856.2860000000002 1534.45 855.9000000000001 1534.45C855.5140000000001 1534.45 855.2 1534.14 855.2 1533.75ZM874.1 1523.09C874.1 1519.99 871.5880000000001 1517.47 868.5 1517.47C865.412 1517.47 862.9 1519.99 862.9 1523.09C862.9 1526.1999999999998 865.4119999999999 1528.72 868.5 1528.72C871.588 1528.72 874.1 1526.2 874.1 1523.09ZM864.3 1523.09C864.3 1520.77 866.184 1518.87 868.5 1518.87C870.816 1518.87 872.7 1520.77 872.7 1523.09C872.7 1525.4199999999998 870.816 1527.31 868.5 1527.31C866.184 1527.31 864.3 1525.4199999999998 864.3 1523.09ZM871.3 1523.09C871.3 1522.7099999999998 870.986 1522.3899999999999 870.5999999999999 1522.3899999999999C870.213 1522.3899999999999 869.8999999999999 1522.7099999999998 869.8999999999999 1523.09C869.8999999999999 1523.87 869.2719999999998 1524.5 868.4999999999999 1524.5C867.7279999999998 1524.5 867.0999999999999 1523.87 867.0999999999999 1523.09C867.0999999999999 1522.32 867.728 1521.6899999999998 868.4999999999999 1521.6899999999998C868.8859999999999 1521.6899999999998 869.1999999999999 1521.37 869.1999999999999 1520.9799999999998C869.1999999999999 1520.5999999999997 868.886 1520.2799999999997 868.4999999999999 1520.2799999999997C866.9559999999999 1520.2799999999997 865.6999999999999 1521.5399999999997 865.6999999999999 1523.0899999999997C865.6999999999999 1524.6399999999996 866.9559999999999 1525.9099999999996 868.4999999999999 1525.9099999999996C870.0439999999999 1525.9099999999996 871.2999999999998 1524.6399999999996 871.2999999999998 1523.0899999999997Z " fill="#ff3300" fill-opacity="1" transform="matrix(1,0,0,1,-851,-1504)"></path></svg>