<svg id="SvgjsSvg1014" xmlns="http://www.w3.org/2000/svg" version="1.1" xmlns:xlink="http://www.w3.org/1999/xlink" xmlns:svgjs="http://svgjs.com/svgjs" width="16" height="30" viewBox="0 0 16 30"><title>Forma 1</title><desc>Created with Avocode.</desc><defs id="SvgjsDefs1015"></defs><path id="SvgjsPath1016" d="M1235 2074.42V2092.58C1235 2093.37 1235.67 2094.0099999999998 1236.51 2094.0099999999998C1237.34 2094.0099999999998 1238.01 2093.37 1238.01 2092.58V2074.42C1238.01 2073.63 1237.34 2072.9900000000002 1236.51 2072.9900000000002C1235.67 2072.9900000000002 1235 2073.63 1235 2074.42ZM1242.57 2075.01C1242.9299999999998 2075.01 1243.29 2074.8700000000003 1243.57 2074.59C1244.12 2074.03 1244.12 2073.13 1243.57 2072.57L1237.47 2066.4C1236.92 2065.84 1236.03 2065.84 1235.47 2066.4L1229.38 2072.57C1228.8300000000002 2073.13 1228.8300000000002 2074.03 1229.38 2074.59C1229.93 2075.15 1230.8300000000002 2075.15 1231.38 2074.59L1236.47 2069.4300000000003L1241.57 2074.59C1241.84 2074.8700000000003 1242.21 2075.01 1242.57 2075.01Z " fill="#000000" fill-opacity="1" transform="matrix(1,0,0,1,-1228,-2065)"></path></svg>